<?xml version="1.0" encoding="UTF-8"?>
<svg id="Calque_1" xmlns="http://www.w3.org/2000/svg" version="1.1" viewBox="0 0 1500 400">
  <!-- Generator: Adobe Illustrator 29.1.0, SVG Export Plug-In . SVG Version: 2.1.0 Build 142)  -->
  <defs>
    <style>
      .st0 {
        fill: #1d1d1b;
      }

      .st1 {
        fill: #b2b2b2;
      }

      .st2 {
        fill: #f9b233;
      }
    </style>
  </defs>
  <path class="st0" d="M164.8,314.52c25.17,0,42.54-8.32,42.54-23.69,0-11.68-9.56-20.01-25.97-22.89l-43.02-7.52c-29.79-4.96-57.52-20.01-57.52-55.22,0-37.77,32.66-60.98,81.09-60.98,37.6,0,81.1,12.8,85.24,64.02h-39.83c-2.07-21.13-20.71-29.45-45.41-29.45s-38.4,9.12-38.4,22.89c0,10.4,7.49,20.33,30.11,24.17l36.33,5.76c29.32,5.44,58.31,18.25,58.31,56.02,0,41.13-36.01,62.26-84.76,62.26-45.88,0-85.24-18.25-90.18-69.78l39.67.48c4.62,24.01,22.31,33.93,51.78,33.93Z"/>
  <path class="st0" d="M420.04,341.89c-16.89,6.24-31.07,7.84-44.29,7.84-49.55,0-76-29.93-76-80.19v-83.71h-45.88v-36.17h45.88v-71.86h43.02v71.86h72.01v36.17h-72.01v83.87c0,28.17,14.02,40.33,38.08,40.33,11.63,0,23.1-3.36,33.14-7.52l6.05,39.37Z"/>
  <path class="st0" d="M627.14,149.66v195.27h-42.54v-19.05c-16.89,15.37-38.08,24.17-63.25,24.17-50.51,0-84.28-36.17-84.28-92.19v-108.2h42.54v105.48c0,35.69,19.44,55.7,50.51,55.7,18.96,0,38.87-10.72,54.65-30.73v-130.44h42.38Z"/>
  <path class="st2" d="M847.35,49.95v294.82h-42.69v-15.84c-16.57,13.28-37.6,20.81-62.45,20.81-54.65,0-98.46-45.62-98.46-103.07s43.81-102.11,98.46-102.11c24.85,0,45.88,7.52,62.45,20.33V49.95h42.69ZM804.66,282.19v-70.26c-14.5-20.81-34.73-28.17-56.24-28.17-35.53,0-61.66,28.65-61.66,63.06s25.97,64.02,61.66,64.02c21.51,0,41.74-7.52,56.24-28.65Z"/>
  <path class="st2" d="M912.03,149.68v194.79h-42.38v-194.79h42.38Z"/>
  <path class="st2" d="M934.16,49.95l-64.52,22.25,42.38,42.73,22.14-64.98Z"/>
  <g>
    <path class="st0" d="M1347.12,242.3l78.55,26.51v-20.4l-16.5-5.17v-27.13l16.5-5.17v-20.4l-78.55,26.51v25.29-.05ZM1394.76,238.7l-27.85-8.72v-.61l27.85-8.74v18.08Z"/>
    <path class="st0" d="M1392.36,139.53v.63l-45.25,30.93v16.34h78.55v-18.99h-45.34v-.49l45.34-31.26v-16.12h-78.55v18.97h45.25Z"/>
    <path class="st0" d="M1394.36,53.97c-2.54,1.06-4.77,2.59-6.72,4.63-1.95,2.02-3.62,4.54-5.03,7.52-1.41,2.99-2.54,6.42-3.38,10.3l-1.53,6.75c-.38,1.79-.82,3.41-1.34,4.84-.52,1.43-1.1,2.66-1.79,3.67-.68,1.01-1.46,1.79-2.35,2.3-.89.52-1.93.75-3.1.71-1.44-.02-2.71-.45-3.81-1.27-1.1-.82-2-2.04-2.63-3.69-.63-1.65-.96-3.69-.96-6.13,0-3.71.78-6.56,2.35-8.58,1.58-2,3.76-3.15,6.58-3.38v-18.19c-4.89.05-9.19,1.32-12.88,3.81-3.71,2.49-6.58,5.97-8.65,10.46-2.07,4.49-3.08,9.78-3.08,15.87s1.03,11.26,3.08,15.91c2.05,4.65,4.89,8.3,8.56,10.93,3.67,2.63,7.92,3.95,12.76,3.9,5.97.02,10.7-1.93,14.17-5.83,3.48-3.9,6.02-9.26,7.57-16.08l1.93-8.2c.66-2.87,1.39-5.22,2.16-7.08.77-1.86,1.69-3.22,2.75-4.11,1.06-.89,2.33-1.36,3.81-1.39,1.57.02,2.98.52,4.23,1.5s2.19,2.35,2.87,4.16c.68,1.81,1.04,3.97,1.04,6.53,0,2.8-.45,5.24-1.32,7.36-.87,2.12-2.14,3.76-3.83,4.96-1.69,1.2-3.81,1.88-6.32,2.02v18.19c6.13-.07,11.21-1.48,15.23-4.18,4.02-2.7,7-6.51,8.98-11.4,1.97-4.89,2.96-10.62,2.96-17.18s-.94-12.15-2.84-16.78c-1.88-4.63-4.61-8.2-8.18-10.67-3.55-2.49-7.81-3.74-12.76-3.76-3.15.02-6,.56-8.51,1.62v-.02Z"/>
    <path class="st0" d="M982.53,268.81v-37.54l78.77-68.94c5.9-5.34,10.93-10.25,15.07-14.71,4.14-4.47,7.31-8.96,9.5-13.49,2.19-4.54,3.27-9.47,3.27-14.81,0-5.97-1.29-11.09-3.9-15.35-2.61-4.25-6.18-7.55-10.77-9.85-4.56-2.33-9.8-3.48-15.7-3.48s-11.21,1.22-15.7,3.64c-4.49,2.42-7.99,5.92-10.48,10.48-2.49,4.56-3.74,10.13-3.74,16.67h-49.48c0-14.69,3.31-27.38,9.92-38.06,6.6-10.67,15.91-18.92,27.88-24.73,11.99-5.81,25.93-8.7,41.79-8.7s30.6,2.75,42.71,8.23c12.08,5.48,21.46,13.12,28.09,22.94,6.65,9.8,9.97,21.18,9.97,34.11,0,8.23-1.65,16.38-4.96,24.47-3.31,8.09-9.21,17.02-17.77,26.77-8.53,9.78-20.64,21.46-36.32,35.12l-25.83,23.83v1.36h87.51v42.08h-159.81v-.05Z"/>
    <path class="st0" d="M1239.79,271.75c-15.75,0-29.73-2.84-41.96-8.53-12.22-5.69-21.88-13.54-28.94-23.51-7.05-9.99-10.74-21.44-11.02-34.36h50.61c.42,7.94,3.64,14.31,9.71,19.13,6.04,4.82,13.26,7.22,21.6,7.22,6.53,0,12.34-1.43,17.39-4.32,5.05-2.89,9.03-6.93,11.92-12.18,2.89-5.24,4.28-11.26,4.21-18.08.07-6.96-1.36-13.05-4.28-18.24s-6.93-9.26-12.01-12.18c-5.08-2.91-10.95-4.37-17.56-4.37-6.25-.07-12.18,1.29-17.77,4.11-5.59,2.82-9.83,6.65-12.69,11.49l-46.07-8.65,9.38-116.4h138.54v42.07h-95.62l-4.96,50.91h1.27c3.6-5.97,9.36-10.91,17.35-14.81,7.97-3.9,17.06-5.85,27.24-5.85,12.93,0,24.47,3.01,34.62,9,10.15,6.02,18.17,14.31,24.05,24.94,5.88,10.6,8.81,22.78,8.81,36.48,0,14.83-3.5,27.97-10.48,39.44-7,11.47-16.76,20.45-29.31,26.94-12.55,6.51-27.22,9.75-44.03,9.75v-.02Z"/>
    <path class="st1" d="M988.3,348.93h-5.78l16.7-45.49h5.69l16.7,45.49h-5.78l-13.59-38.3h-.36l-13.59,38.3ZM990.43,331.16h23.28v4.89h-23.28v-4.89ZM1064.78,303.44v45.49h-5.33l-24.79-35.72h-.44v35.72h-5.51v-45.49h5.33l24.88,35.81h.44v-35.81h5.42ZM1111.88,303.44v45.49h-5.33l-24.79-35.72h-.44v35.72h-5.51v-45.49h5.33l24.88,35.81h.44v-35.81h5.42ZM1128.41,303.44v45.49h-5.51v-45.49h5.51ZM1141.33,303.44l13.51,38.3h.53l13.51-38.3h5.78l-16.7,45.49h-5.69l-16.7-45.49h5.78ZM1181.73,348.93v-45.49h27.46v4.89h-21.95v15.37h20.53v4.89h-20.53v15.46h22.3v4.89h-27.81ZM1219.12,348.93v-45.49h15.37c3.55,0,6.47.61,8.75,1.82,2.28,1.2,3.97,2.85,5.06,4.95,1.1,2.11,1.64,4.49,1.64,7.18s-.55,5.05-1.64,7.13c-1.1,2.07-2.78,3.7-5.04,4.89-2.27,1.17-5.16,1.76-8.69,1.76h-12.44v-4.98h12.26c2.43,0,4.38-.35,5.86-1.06,1.5-.71,2.58-1.72,3.24-3.02.68-1.32,1.02-2.89,1.02-4.71s-.34-3.41-1.02-4.78c-.68-1.36-1.77-2.41-3.27-3.15-1.5-.75-3.47-1.13-5.93-1.13h-9.68v40.61h-5.51ZM1240.53,328.5l11.2,20.44h-6.4l-11.02-20.44h6.22ZM1284.01,314.81c-.27-2.25-1.35-4-3.24-5.24-1.9-1.25-4.22-1.87-6.97-1.87-2.01,0-3.78.33-5.29.98-1.5.65-2.67,1.55-3.51,2.69-.83,1.14-1.24,2.44-1.24,3.89,0,1.21.29,2.26.87,3.13.59.86,1.35,1.58,2.27,2.16.92.56,1.88,1.03,2.89,1.4,1.01.35,1.93.64,2.78.87l4.62,1.24c1.18.31,2.5.74,3.95,1.29,1.47.55,2.87,1.29,4.2,2.24,1.35.94,2.46,2.13,3.33,3.6.87,1.46,1.31,3.26,1.31,5.4,0,2.46-.64,4.68-1.93,6.67-1.27,1.98-3.14,3.56-5.6,4.73-2.44,1.17-5.41,1.76-8.91,1.76-3.26,0-6.08-.52-8.46-1.58-2.37-1.05-4.24-2.52-5.6-4.4-1.35-1.88-2.11-4.07-2.29-6.55h5.69c.15,1.72.73,3.14,1.73,4.27,1.02,1.11,2.31,1.94,3.86,2.49,1.57.53,3.26.8,5.06.8,2.1,0,3.99-.34,5.66-1.02,1.67-.7,3-1.66,3.98-2.89.98-1.24,1.47-2.69,1.47-4.35,0-1.51-.42-2.74-1.27-3.69s-1.95-1.72-3.33-2.31c-1.38-.59-2.87-1.11-4.46-1.56l-5.6-1.6c-3.55-1.02-6.37-2.48-8.44-4.37-2.07-1.9-3.11-4.38-3.11-7.44,0-2.55.69-4.77,2.07-6.66,1.39-1.91,3.26-3.39,5.6-4.44,2.35-1.07,4.98-1.6,7.89-1.6s5.54.52,7.82,1.58c2.28,1.04,4.09,2.46,5.42,4.27,1.35,1.81,2.06,3.86,2.13,6.15h-5.33ZM1300.89,348.93h-5.78l16.7-45.49h5.69l16.7,45.49h-5.78l-13.59-38.3h-.36l-13.59,38.3ZM1303.02,331.16h23.28v4.89h-23.28v-4.89ZM1346.8,303.44v45.49h-5.51v-45.49h5.51ZM1357.85,348.93v-45.49h15.37c3.55,0,6.47.61,8.75,1.82,2.28,1.2,3.97,2.85,5.07,4.95,1.1,2.11,1.64,4.49,1.64,7.18s-.55,5.05-1.64,7.13c-1.1,2.07-2.78,3.7-5.04,4.89-2.27,1.17-5.16,1.76-8.69,1.76h-12.44v-4.98h12.26c2.43,0,4.39-.35,5.87-1.06,1.5-.71,2.58-1.72,3.24-3.02.68-1.32,1.02-2.89,1.02-4.71s-.34-3.41-1.02-4.78c-.68-1.36-1.77-2.41-3.27-3.15-1.5-.75-3.47-1.13-5.93-1.13h-9.68v40.61h-5.51ZM1379.26,328.5l11.2,20.44h-6.4l-11.02-20.44h6.22ZM1397.86,348.93v-45.49h27.46v4.89h-21.95v15.37h20.53v4.89h-20.53v15.46h22.3v4.89h-27.81Z"/>
  </g>
</svg>